%TF.GenerationSoftware,KiCad,Pcbnew,10.0.4*%
%TF.CreationDate,2026-07-08T02:39:23-07:00*%
%TF.ProjectId,smarthomeiot,736d6172-7468-46f6-9d65-696f742e6b69,rev?*%
%TF.SameCoordinates,Original*%
%TF.FileFunction,Copper,L1,Top*%
%TF.FilePolarity,Positive*%
%FSLAX46Y46*%
G04 Gerber Fmt 4.6, Leading zero omitted, Abs format (unit mm)*
G04 Created by KiCad (PCBNEW 10.0.4) date 2026-07-08 02:39:23*
%MOMM*%
%LPD*%
G01*
G04 APERTURE LIST*
G04 Aperture macros list*
%AMRoundRect*
0 Rectangle with rounded corners*
0 $1 Rounding radius*
0 $2 $3 $4 $5 $6 $7 $8 $9 X,Y pos of 4 corners*
0 Add a 4 corners polygon primitive as box body*
4,1,4,$2,$3,$4,$5,$6,$7,$8,$9,$2,$3,0*
0 Add four circle primitives for the rounded corners*
1,1,$1+$1,$2,$3*
1,1,$1+$1,$4,$5*
1,1,$1+$1,$6,$7*
1,1,$1+$1,$8,$9*
0 Add four rect primitives between the rounded corners*
20,1,$1+$1,$2,$3,$4,$5,0*
20,1,$1+$1,$4,$5,$6,$7,0*
20,1,$1+$1,$6,$7,$8,$9,0*
20,1,$1+$1,$8,$9,$2,$3,0*%
G04 Aperture macros list end*
%TA.AperFunction,ComponentPad*%
%ADD10RoundRect,0.250000X-0.600000X-0.750000X0.600000X-0.750000X0.600000X0.750000X-0.600000X0.750000X0*%
%TD*%
%TA.AperFunction,ComponentPad*%
%ADD11O,1.700000X2.000000*%
%TD*%
%TA.AperFunction,ComponentPad*%
%ADD12C,1.600000*%
%TD*%
%TA.AperFunction,ComponentPad*%
%ADD13C,1.440000*%
%TD*%
%TA.AperFunction,ComponentPad*%
%ADD14C,2.800000*%
%TD*%
%TA.AperFunction,ComponentPad*%
%ADD15RoundRect,0.250000X1.150000X-1.150000X1.150000X1.150000X-1.150000X1.150000X-1.150000X-1.150000X0*%
%TD*%
%TA.AperFunction,ComponentPad*%
%ADD16RoundRect,0.250000X1.050000X-1.050000X1.050000X1.050000X-1.050000X1.050000X-1.050000X-1.050000X0*%
%TD*%
%TA.AperFunction,ComponentPad*%
%ADD17C,2.600000*%
%TD*%
%TA.AperFunction,SMDPad,CuDef*%
%ADD18R,1.500000X0.900000*%
%TD*%
%TA.AperFunction,SMDPad,CuDef*%
%ADD19R,0.900000X1.500000*%
%TD*%
%TA.AperFunction,HeatsinkPad*%
%ADD20R,0.900000X0.900000*%
%TD*%
%TA.AperFunction,HeatsinkPad*%
%ADD21C,0.600000*%
%TD*%
%TA.AperFunction,ComponentPad*%
%ADD22RoundRect,0.250000X-0.550000X-0.550000X0.550000X-0.550000X0.550000X0.550000X-0.550000X0.550000X0*%
%TD*%
%TA.AperFunction,ComponentPad*%
%ADD23RoundRect,0.250000X-1.050000X-1.050000X1.050000X-1.050000X1.050000X1.050000X-1.050000X1.050000X0*%
%TD*%
%TA.AperFunction,ComponentPad*%
%ADD24R,1.700000X1.700000*%
%TD*%
%TA.AperFunction,ComponentPad*%
%ADD25C,1.700000*%
%TD*%
%TA.AperFunction,ComponentPad*%
%ADD26R,1.050000X1.500000*%
%TD*%
%TA.AperFunction,ComponentPad*%
%ADD27O,1.050000X1.500000*%
%TD*%
%TA.AperFunction,SMDPad,CuDef*%
%ADD28RoundRect,0.375000X-0.625000X-0.375000X0.625000X-0.375000X0.625000X0.375000X-0.625000X0.375000X0*%
%TD*%
%TA.AperFunction,SMDPad,CuDef*%
%ADD29RoundRect,0.500000X-0.500000X-1.400000X0.500000X-1.400000X0.500000X1.400000X-0.500000X1.400000X0*%
%TD*%
%TA.AperFunction,ComponentPad*%
%ADD30C,3.000000*%
%TD*%
%TA.AperFunction,ViaPad*%
%ADD31C,0.600000*%
%TD*%
%TA.AperFunction,Conductor*%
%ADD32C,0.200000*%
%TD*%
G04 APERTURE END LIST*
D10*
%TO.P,U1,1,AC/L_1*%
%TO.N,Net-(U1-AC{slash}L)*%
X148320000Y-71400000D03*
D11*
%TO.P,U1,2,AC/N_2*%
%TO.N,Net-(J1-Pin_2)*%
X148320000Y-76400000D03*
%TO.P,U1,3,-Vout_3*%
%TO.N,GND*%
X177400000Y-66400000D03*
%TO.P,U1,4,+Vout_4*%
%TO.N,+5V*%
X177400000Y-81400000D03*
%TD*%
D12*
%TO.P,R6,1*%
%TO.N,/ESP32_Controller/Relay_4*%
X100200000Y-185810000D03*
%TO.P,R6,2*%
%TO.N,Net-(Q4-B)*%
X100200000Y-178190000D03*
%TD*%
%TO.P,R5,1*%
%TO.N,/ESP32_Controller/Relay_3*%
X100600000Y-140620000D03*
%TO.P,R5,2*%
%TO.N,Net-(Q3-B)*%
X100600000Y-133000000D03*
%TD*%
D13*
%TO.P,RV1,1*%
%TO.N,Net-(U1-AC{slash}L)*%
X143520000Y-145340000D03*
%TO.P,RV1,2*%
%TO.N,Net-(J1-Pin_2)*%
X148600000Y-142800000D03*
%TO.P,RV1,3*%
%TO.N,N/C*%
X143520000Y-140260000D03*
%TD*%
D14*
%TO.P,K4,11*%
%TO.N,Net-(J6-Pin_2)*%
X61450000Y-165077795D03*
%TO.P,K4,12*%
%TO.N,Net-(J6-Pin_1)*%
X68950000Y-170077795D03*
%TO.P,K4,14*%
%TO.N,Net-(J6-Pin_3)*%
X68950000Y-160077795D03*
D15*
%TO.P,K4,A1*%
%TO.N,+5V*%
X61450000Y-185077795D03*
D14*
%TO.P,K4,A2*%
%TO.N,Net-(D4-A)*%
X68950000Y-185077795D03*
%TD*%
D16*
%TO.P,J3,1,Pin_1_1*%
%TO.N,Net-(J3-Pin_1)*%
X36700000Y-38800000D03*
D17*
%TO.P,J3,2,Pin_2_2*%
%TO.N,Net-(J3-Pin_2)*%
X36700000Y-33800000D03*
%TO.P,J3,3,Pin_3_3*%
%TO.N,Net-(J3-Pin_3)*%
X36700000Y-28800000D03*
%TD*%
D14*
%TO.P,K2,11*%
%TO.N,Net-(J4-Pin_2)*%
X61200000Y-76200000D03*
%TO.P,K2,12*%
%TO.N,Net-(J4-Pin_1)*%
X68700000Y-81200000D03*
%TO.P,K2,14*%
%TO.N,Net-(J4-Pin_3)*%
X68700000Y-71200000D03*
D15*
%TO.P,K2,A1*%
%TO.N,+5V*%
X61200000Y-96200000D03*
D14*
%TO.P,K2,A2*%
%TO.N,Net-(D2-A)*%
X68700000Y-96200000D03*
%TD*%
D18*
%TO.P,U3,1,GND_1*%
%TO.N,GND*%
X214850000Y-55370000D03*
%TO.P,U3,2,VDD_2*%
%TO.N,+3V3*%
X214850000Y-56640000D03*
%TO.P,U3,3,EN_3*%
%TO.N,unconnected-(U3-EN-Pad3)*%
X214850000Y-57910000D03*
%TO.P,U3,4,SENSOR_VP_4*%
%TO.N,unconnected-(U3-SENSOR_VP-Pad4)*%
X214850000Y-59180000D03*
%TO.P,U3,5,SENSOR_VN_5*%
%TO.N,unconnected-(U3-SENSOR_VN-Pad5)*%
X214850000Y-60450000D03*
%TO.P,U3,6,IO34_6*%
%TO.N,unconnected-(U3-IO34-Pad6)*%
X214850000Y-61720000D03*
%TO.P,U3,7,IO35_7*%
%TO.N,unconnected-(U3-IO35-Pad7)*%
X214850000Y-62990000D03*
%TO.P,U3,8,IO32_8*%
%TO.N,unconnected-(U3-IO32-Pad8)*%
X214850000Y-64260000D03*
%TO.P,U3,9,IO33_9*%
%TO.N,unconnected-(U3-IO33-Pad9)*%
X214850000Y-65530000D03*
%TO.P,U3,10,IO25_10*%
%TO.N,unconnected-(U3-IO25-Pad10)*%
X214850000Y-66800000D03*
%TO.P,U3,11,IO26_11*%
%TO.N,unconnected-(U3-IO26-Pad11)*%
X214850000Y-68070000D03*
%TO.P,U3,12,IO27_12*%
%TO.N,/ESP32_Controller/Relay_4*%
X214850000Y-69340000D03*
%TO.P,U3,13,IO14_13*%
%TO.N,/ESP32_Controller/Relay_3*%
X214850000Y-70610000D03*
%TO.P,U3,14,IO12_14*%
%TO.N,/ESP32_Controller/Relay_1*%
X214850000Y-71880000D03*
D19*
%TO.P,U3,15,GND_15*%
%TO.N,GND*%
X217885000Y-73130000D03*
%TO.P,U3,16,IO13_16*%
%TO.N,/ESP32_Controller/Relay_2*%
X219155000Y-73130000D03*
%TO.P,U3,17,NC_17*%
%TO.N,unconnected-(U3-NC-Pad17)*%
X220425000Y-73130000D03*
%TO.P,U3,18,NC_18*%
%TO.N,unconnected-(U3-NC-Pad18)*%
X221695000Y-73130000D03*
%TO.P,U3,19,NC_19*%
%TO.N,unconnected-(U3-NC-Pad19)*%
X222965000Y-73130000D03*
%TO.P,U3,20,NC_20*%
%TO.N,unconnected-(U3-NC-Pad20)*%
X224235000Y-73130000D03*
%TO.P,U3,21,NC_21*%
%TO.N,unconnected-(U3-NC-Pad21)*%
X225505000Y-73130000D03*
%TO.P,U3,22,NC_22*%
%TO.N,unconnected-(U3-NC-Pad22)*%
X226775000Y-73130000D03*
%TO.P,U3,23,IO15_23*%
%TO.N,unconnected-(U3-IO15-Pad23)*%
X228045000Y-73130000D03*
%TO.P,U3,24,IO2_24*%
%TO.N,unconnected-(U3-IO2-Pad24)*%
X229315000Y-73130000D03*
D18*
%TO.P,U3,25,IO0_25*%
%TO.N,unconnected-(U3-IO0-Pad25)*%
X232350000Y-71880000D03*
%TO.P,U3,26,IO4_26*%
%TO.N,unconnected-(U3-IO4-Pad26)*%
X232350000Y-70610000D03*
%TO.P,U3,27,IO16_27*%
%TO.N,unconnected-(U3-IO16-Pad27)*%
X232350000Y-69340000D03*
%TO.P,U3,28,IO17_28*%
%TO.N,unconnected-(U3-IO17-Pad28)*%
X232350000Y-68070000D03*
%TO.P,U3,29,IO5_29*%
%TO.N,unconnected-(U3-IO5-Pad29)*%
X232350000Y-66800000D03*
%TO.P,U3,30,IO18_30*%
%TO.N,unconnected-(U3-IO18-Pad30)*%
X232350000Y-65530000D03*
%TO.P,U3,31,IO19_31*%
%TO.N,unconnected-(U3-IO19-Pad31)*%
X232350000Y-64260000D03*
%TO.P,U3,32,NC_32*%
%TO.N,unconnected-(U3-NC-Pad32)*%
X232350000Y-62990000D03*
%TO.P,U3,33,IO21_33*%
%TO.N,Net-(J2-Pin_4)*%
X232350000Y-61720000D03*
%TO.P,U3,34,RXD0/IO3_34*%
%TO.N,unconnected-(U3-RXD0{slash}IO3-Pad34)*%
X232350000Y-60450000D03*
%TO.P,U3,35,TXD0/IO1_35*%
%TO.N,unconnected-(U3-TXD0{slash}IO1-Pad35)*%
X232350000Y-59180000D03*
%TO.P,U3,36,IO22_36*%
%TO.N,Net-(J2-Pin_3)*%
X232350000Y-57910000D03*
%TO.P,U3,37,IO23_37*%
%TO.N,unconnected-(U3-IO23-Pad37)*%
X232350000Y-56640000D03*
%TO.P,U3,38,GND_38*%
%TO.N,GND*%
X232350000Y-55370000D03*
D20*
%TO.P,U3,39,GND_39*%
X220700000Y-61690000D03*
D21*
X220700000Y-62390000D03*
D20*
X220700000Y-63090000D03*
D21*
X220700000Y-63790000D03*
D20*
X220700000Y-64490000D03*
D21*
X221400000Y-61690000D03*
X221400000Y-63090000D03*
X221400000Y-64490000D03*
D20*
X222100000Y-61690000D03*
D21*
X222100000Y-62390000D03*
D20*
X222100000Y-63090000D03*
D21*
X222100000Y-63790000D03*
D20*
X222100000Y-64490000D03*
D21*
X222800000Y-61690000D03*
X222800000Y-63090000D03*
X222800000Y-64490000D03*
D20*
X223500000Y-61690000D03*
D21*
X223500000Y-62390000D03*
D20*
X223500000Y-63090000D03*
D21*
X223500000Y-63790000D03*
D20*
X223500000Y-64490000D03*
%TD*%
D22*
%TO.P,C2,1*%
%TO.N,GND*%
X121400000Y-85200000D03*
D12*
%TO.P,C2,2*%
%TO.N,+3V3*%
X125200000Y-85200000D03*
%TD*%
%TO.P,R4,1*%
%TO.N,/ESP32_Controller/Relay_2*%
X101400000Y-96800000D03*
%TO.P,R4,2*%
%TO.N,Net-(Q2-B)*%
X101400000Y-89180000D03*
%TD*%
D23*
%TO.P,J1,1,Pin_1_1*%
%TO.N,Net-(J1-Pin_1)*%
X143100000Y-178167500D03*
D17*
%TO.P,J1,2,Pin_2_2*%
%TO.N,Net-(J1-Pin_2)*%
X148100000Y-178167500D03*
%TD*%
D12*
%TO.P,R3,1*%
%TO.N,/ESP32_Controller/Relay_1*%
X101190000Y-54000000D03*
%TO.P,R3,2*%
%TO.N,Net-(Q1-B)*%
X101190000Y-46380000D03*
%TD*%
D16*
%TO.P,J6,1,Pin_1_1*%
%TO.N,Net-(J6-Pin_1)*%
X36567500Y-169800000D03*
D17*
%TO.P,J6,2,Pin_2_2*%
%TO.N,Net-(J6-Pin_2)*%
X36567500Y-164800000D03*
%TO.P,J6,3,Pin_3_3*%
%TO.N,Net-(J6-Pin_3)*%
X36567500Y-159800000D03*
%TD*%
D22*
%TO.P,C1,1*%
%TO.N,+5V*%
X121300000Y-102400000D03*
D12*
%TO.P,C1,2*%
%TO.N,GND*%
X124800000Y-102400000D03*
%TD*%
D14*
%TO.P,K3,11*%
%TO.N,Net-(J5-Pin_2)*%
X61550000Y-119477795D03*
%TO.P,K3,12*%
%TO.N,Net-(J5-Pin_1)*%
X69050000Y-124477795D03*
%TO.P,K3,14*%
%TO.N,Net-(J5-Pin_3)*%
X69050000Y-114477795D03*
D15*
%TO.P,K3,A1*%
%TO.N,+5V*%
X61550000Y-139477795D03*
D14*
%TO.P,K3,A2*%
%TO.N,Net-(D3-A)*%
X69050000Y-139477795D03*
%TD*%
D24*
%TO.P,J2,1,Pin_1_1*%
%TO.N,+3V3*%
X256400000Y-106280000D03*
D25*
%TO.P,J2,2,Pin_2_2*%
%TO.N,GND*%
X256400000Y-103740000D03*
%TO.P,J2,3,Pin_3_3*%
%TO.N,Net-(J2-Pin_3)*%
X256400000Y-101200000D03*
%TO.P,J2,4,Pin_4_4*%
%TO.N,Net-(J2-Pin_4)*%
X256400000Y-98660000D03*
%TD*%
D26*
%TO.P,Q1,1,C_1*%
%TO.N,Net-(J3-Pin_1)*%
X108600000Y-38400000D03*
D27*
%TO.P,Q1,2,B_2*%
%TO.N,Net-(Q1-B)*%
X109870000Y-38400000D03*
%TO.P,Q1,3,E_3*%
%TO.N,GND*%
X111140000Y-38400000D03*
%TD*%
D16*
%TO.P,J5,1,Pin_1_1*%
%TO.N,Net-(J5-Pin_1)*%
X36700000Y-124800000D03*
D17*
%TO.P,J5,2,Pin_2_2*%
%TO.N,Net-(J5-Pin_2)*%
X36700000Y-119800000D03*
%TO.P,J5,3,Pin_3_3*%
%TO.N,Net-(J5-Pin_3)*%
X36700000Y-114800000D03*
%TD*%
D12*
%TO.P,R2,1*%
%TO.N,+3V3*%
X272200000Y-106220000D03*
%TO.P,R2,2*%
%TO.N,Net-(J2-Pin_4)*%
X272200000Y-98600000D03*
%TD*%
D28*
%TO.P,U2,1,GND_1*%
%TO.N,GND*%
X205100000Y-122740000D03*
%TO.P,U2,2,VO_2*%
%TO.N,+3V3*%
X205100000Y-125040000D03*
D29*
X211400000Y-125040000D03*
D28*
%TO.P,U2,3,VI_3*%
%TO.N,+5V*%
X205100000Y-127340000D03*
%TD*%
D30*
%TO.P,F1,1*%
%TO.N,Net-(J1-Pin_1)*%
X208800000Y-167250000D03*
%TO.P,F1,2*%
%TO.N,Net-(U1-AC{slash}L)*%
X208800000Y-144750000D03*
%TD*%
D26*
%TO.P,Q2,1,C_1*%
%TO.N,Net-(J4-Pin_1)*%
X108330000Y-81360000D03*
D27*
%TO.P,Q2,2,B_2*%
%TO.N,Net-(Q2-B)*%
X109600000Y-81360000D03*
%TO.P,Q2,3,E_3*%
%TO.N,GND*%
X110870000Y-81360000D03*
%TD*%
D22*
%TO.P,D1,1,K_1*%
%TO.N,+5V*%
X60990000Y-61000000D03*
D12*
%TO.P,D1,2,A_2*%
%TO.N,Net-(D1-A)*%
X68610000Y-61000000D03*
%TD*%
D26*
%TO.P,Q3,1,C_1*%
%TO.N,Net-(J5-Pin_1)*%
X108530000Y-124960000D03*
D27*
%TO.P,Q3,2,B_2*%
%TO.N,Net-(Q3-B)*%
X109800000Y-124960000D03*
%TO.P,Q3,3,E_3*%
%TO.N,GND*%
X111070000Y-124960000D03*
%TD*%
D22*
%TO.P,D2,1,K_1*%
%TO.N,+5V*%
X61190000Y-103200000D03*
D12*
%TO.P,D2,2,A_2*%
%TO.N,Net-(D2-A)*%
X68810000Y-103200000D03*
%TD*%
D22*
%TO.P,D4,1,K_1*%
%TO.N,+5V*%
X61390000Y-191200000D03*
D12*
%TO.P,D4,2,A_2*%
%TO.N,Net-(D4-A)*%
X69010000Y-191200000D03*
%TD*%
D26*
%TO.P,Q4,1,C_1*%
%TO.N,Net-(J6-Pin_1)*%
X107930000Y-169960000D03*
D27*
%TO.P,Q4,2,B_2*%
%TO.N,Net-(Q4-B)*%
X109200000Y-169960000D03*
%TO.P,Q4,3,E_3*%
%TO.N,GND*%
X110470000Y-169960000D03*
%TD*%
D22*
%TO.P,D3,1,K_1*%
%TO.N,+5V*%
X61590000Y-146400000D03*
D12*
%TO.P,D3,2,A_2*%
%TO.N,Net-(D3-A)*%
X69210000Y-146400000D03*
%TD*%
%TO.P,R1,1*%
%TO.N,+3V3*%
X263600000Y-108410000D03*
%TO.P,R1,2*%
%TO.N,Net-(J2-Pin_3)*%
X263600000Y-100790000D03*
%TD*%
D16*
%TO.P,J4,1,Pin_1_1*%
%TO.N,Net-(J4-Pin_1)*%
X36700000Y-81600000D03*
D17*
%TO.P,J4,2,Pin_2_2*%
%TO.N,Net-(J4-Pin_2)*%
X36700000Y-76600000D03*
%TO.P,J4,3,Pin_3_3*%
%TO.N,Net-(J4-Pin_3)*%
X36700000Y-71600000D03*
%TD*%
D14*
%TO.P,K1,11*%
%TO.N,Net-(J3-Pin_2)*%
X61150000Y-33677795D03*
%TO.P,K1,12*%
%TO.N,Net-(J3-Pin_1)*%
X68650000Y-38677795D03*
%TO.P,K1,14*%
%TO.N,Net-(J3-Pin_3)*%
X68650000Y-28677795D03*
D15*
%TO.P,K1,A1*%
%TO.N,+5V*%
X61150000Y-53677795D03*
D14*
%TO.P,K1,A2*%
%TO.N,Net-(D1-A)*%
X68650000Y-53677795D03*
%TD*%
D31*
%TO.N,GND*%
X119502082Y-112497918D03*
X112000000Y-52300000D03*
X214250000Y-73000000D03*
%TO.N,+5V*%
X99700000Y-110000000D03*
X196600000Y-126890000D03*
%TO.N,+3V3*%
X206649956Y-126493168D03*
X206023032Y-125423032D03*
X200200000Y-124390000D03*
%TO.N,Net-(U1-AC{slash}L)*%
X158819265Y-110780735D03*
%TO.N,Net-(J1-Pin_2)*%
X159919264Y-111880735D03*
%TO.N,Net-(J4-Pin_1)*%
X99700000Y-81600000D03*
%TO.N,Net-(J5-Pin_1)*%
X99700000Y-124800000D03*
%TO.N,Net-(J6-Pin_1)*%
X98500000Y-169800000D03*
%TD*%
%TO.N,GND*%
D32*
X215800000Y-55370000D02*
X220700000Y-60270000D01*
X111140000Y-38400000D02*
X111140000Y-51440000D01*
X177400000Y-66400000D02*
X203290000Y-66400000D01*
X110470000Y-169735000D02*
X110470000Y-169960000D01*
X231300000Y-72630000D02*
X223500000Y-64830000D01*
X124800000Y-107200000D02*
X119502082Y-112497918D01*
X233400000Y-80740000D02*
X233400000Y-72630000D01*
X124800000Y-102400000D02*
X124800000Y-107200000D01*
X225080000Y-61690000D02*
X223500000Y-61690000D01*
X111070000Y-125205686D02*
X99500000Y-136775686D01*
X256400000Y-103740000D02*
X233400000Y-80740000D01*
X99500000Y-136775686D02*
X99500000Y-158765000D01*
X214850000Y-55370000D02*
X215800000Y-55370000D01*
X121400000Y-85200000D02*
X121400000Y-99000000D01*
X111140000Y-51440000D02*
X112000000Y-52300000D01*
X111070000Y-124960000D02*
X111070000Y-125205686D01*
X203290000Y-66400000D02*
X214320000Y-55370000D01*
X111140000Y-38400000D02*
X149400000Y-38400000D01*
X205100000Y-82150000D02*
X214250000Y-73000000D01*
X220700000Y-64490000D02*
X217885000Y-67305000D01*
X220700000Y-60270000D02*
X220700000Y-61690000D01*
X149400000Y-38400000D02*
X177400000Y-66400000D01*
X117560000Y-81360000D02*
X121400000Y-85200000D01*
X99500000Y-158765000D02*
X110470000Y-169735000D01*
X232350000Y-55370000D02*
X232880000Y-55370000D01*
X232350000Y-55370000D02*
X231400000Y-55370000D01*
X217885000Y-67305000D02*
X217885000Y-73130000D01*
X205100000Y-122740000D02*
X205100000Y-82150000D01*
X214320000Y-55370000D02*
X214850000Y-55370000D01*
X223500000Y-64830000D02*
X223500000Y-61690000D01*
X231400000Y-55370000D02*
X225080000Y-61690000D01*
X121400000Y-99000000D02*
X124800000Y-102400000D01*
X233400000Y-72630000D02*
X231300000Y-72630000D01*
X110870000Y-81360000D02*
X117560000Y-81360000D01*
%TO.N,+5V*%
X121300000Y-102400000D02*
X114200000Y-95300000D01*
X61450000Y-185077795D02*
X61450000Y-191140000D01*
X60990000Y-61000000D02*
X70750000Y-70760000D01*
X61200000Y-96200000D02*
X61200000Y-103190000D01*
X70750000Y-86650000D02*
X61200000Y-96200000D01*
X61550000Y-139477795D02*
X70750000Y-130277795D01*
X197050000Y-127340000D02*
X196600000Y-126890000D01*
X205100000Y-127340000D02*
X197050000Y-127340000D01*
X61200000Y-103190000D02*
X61190000Y-103200000D01*
X70650000Y-175877795D02*
X61450000Y-185077795D01*
X70750000Y-70760000D02*
X70750000Y-86650000D01*
X61550000Y-146360000D02*
X61590000Y-146400000D01*
X100778679Y-95300000D02*
X99700000Y-96378679D01*
X70750000Y-112760000D02*
X61190000Y-103200000D01*
X70650000Y-155460000D02*
X70650000Y-175877795D01*
X99700000Y-96378679D02*
X99700000Y-110000000D01*
X114200000Y-95300000D02*
X100778679Y-95300000D01*
X61550000Y-139477795D02*
X61550000Y-146360000D01*
X70750000Y-130277795D02*
X70750000Y-112760000D01*
X61590000Y-146400000D02*
X70650000Y-155460000D01*
X61450000Y-191140000D02*
X61390000Y-191200000D01*
X61150000Y-53677795D02*
X61150000Y-60840000D01*
X61150000Y-60840000D02*
X60990000Y-61000000D01*
%TO.N,+3V3*%
X214850000Y-56640000D02*
X215380000Y-56640000D01*
X211400000Y-125040000D02*
X230160000Y-106280000D01*
X217135000Y-58395000D02*
X217135000Y-93255000D01*
X270010000Y-108410000D02*
X272200000Y-106220000D01*
X217135000Y-93255000D02*
X230160000Y-106280000D01*
X205100000Y-125040000D02*
X200850000Y-125040000D01*
X205100000Y-125040000D02*
X205640000Y-125040000D01*
X211400000Y-125040000D02*
X211640000Y-125040000D01*
X263600000Y-108410000D02*
X270010000Y-108410000D01*
X211800000Y-125200000D02*
X207660280Y-125200000D01*
X256400000Y-106280000D02*
X261470000Y-106280000D01*
X211640000Y-125040000D02*
X211800000Y-125200000D01*
X261470000Y-106280000D02*
X263600000Y-108410000D01*
X207660280Y-125200000D02*
X206649956Y-126210324D01*
X200850000Y-125040000D02*
X200200000Y-124390000D01*
X215380000Y-56640000D02*
X217135000Y-58395000D01*
X230160000Y-106280000D02*
X256400000Y-106280000D01*
X206649956Y-126210324D02*
X206649956Y-126493168D01*
X205640000Y-125040000D02*
X206023032Y-125423032D01*
%TO.N,Net-(D1-A)*%
X68650000Y-60960000D02*
X68610000Y-61000000D01*
X68650000Y-53677795D02*
X68650000Y-60960000D01*
%TO.N,Net-(D2-A)*%
X68700000Y-103090000D02*
X68810000Y-103200000D01*
X68700000Y-96200000D02*
X68700000Y-103090000D01*
%TO.N,Net-(D3-A)*%
X69050000Y-139477795D02*
X69050000Y-146240000D01*
X69050000Y-146240000D02*
X69210000Y-146400000D01*
%TO.N,Net-(D4-A)*%
X68950000Y-191140000D02*
X69010000Y-191200000D01*
X68950000Y-185077795D02*
X68950000Y-191140000D01*
%TO.N,Net-(U1-AC{slash}L)*%
X143520000Y-145340000D02*
X147080000Y-141780000D01*
X148320000Y-71400000D02*
X158819265Y-81899265D01*
X147080000Y-141780000D02*
X205830000Y-141780000D01*
X205830000Y-141780000D02*
X208800000Y-144750000D01*
X158819265Y-81899265D02*
X158819265Y-110780735D01*
%TO.N,Net-(J1-Pin_1)*%
X196282500Y-179767500D02*
X208800000Y-167250000D01*
X143100000Y-178167500D02*
X144700000Y-179767500D01*
X144700000Y-179767500D02*
X196282500Y-179767500D01*
%TO.N,Net-(J1-Pin_2)*%
X147170000Y-70415256D02*
X147485256Y-70100000D01*
X148100000Y-178167500D02*
X148100000Y-143300000D01*
X148320000Y-76400000D02*
X147170000Y-75250000D01*
X147170000Y-75250000D02*
X147170000Y-70415256D01*
X147485256Y-70100000D02*
X149154744Y-70100000D01*
X149154744Y-70100000D02*
X159919264Y-80864520D01*
X159919264Y-80864520D02*
X159919264Y-111880735D01*
X148100000Y-143300000D02*
X148600000Y-142800000D01*
%TO.N,Net-(J2-Pin_3)*%
X233065635Y-57910000D02*
X273300000Y-98144365D01*
X256400000Y-101200000D02*
X263190000Y-101200000D01*
X273300000Y-98144365D02*
X273300000Y-99055635D01*
X273300000Y-99055635D02*
X271155635Y-101200000D01*
X232350000Y-57910000D02*
X233065635Y-57910000D01*
X263190000Y-101200000D02*
X263600000Y-100790000D01*
X271155635Y-101200000D02*
X256400000Y-101200000D01*
%TO.N,Net-(J2-Pin_4)*%
X256400000Y-98660000D02*
X256400000Y-85240000D01*
X256400000Y-85240000D02*
X232880000Y-61720000D01*
X272140000Y-98660000D02*
X272200000Y-98600000D01*
X256400000Y-98660000D02*
X272140000Y-98660000D01*
X232350000Y-61720000D02*
X231820000Y-61720000D01*
X232880000Y-61720000D02*
X232350000Y-61720000D01*
%TO.N,Net-(J3-Pin_1)*%
X68650000Y-38677795D02*
X68922205Y-38677795D01*
X69200000Y-38400000D02*
X108600000Y-38400000D01*
X68527795Y-38800000D02*
X68650000Y-38677795D01*
X68922205Y-38677795D02*
X69200000Y-38400000D01*
X36700000Y-38800000D02*
X68527795Y-38800000D01*
%TO.N,Net-(J3-Pin_2)*%
X61027795Y-33800000D02*
X61150000Y-33677795D01*
X36700000Y-33800000D02*
X61027795Y-33800000D01*
%TO.N,Net-(J3-Pin_3)*%
X36700000Y-28800000D02*
X68527795Y-28800000D01*
X68527795Y-28800000D02*
X68650000Y-28677795D01*
%TO.N,Net-(J4-Pin_2)*%
X60800000Y-76600000D02*
X61200000Y-76200000D01*
X36700000Y-76600000D02*
X60800000Y-76600000D01*
%TO.N,Net-(J4-Pin_3)*%
X68300000Y-71600000D02*
X68700000Y-71200000D01*
X36700000Y-71600000D02*
X68300000Y-71600000D01*
%TO.N,Net-(J4-Pin_1)*%
X36700000Y-81600000D02*
X68300000Y-81600000D01*
X99940000Y-81360000D02*
X99700000Y-81600000D01*
X68300000Y-81600000D02*
X68700000Y-81200000D01*
X108330000Y-81360000D02*
X99940000Y-81360000D01*
%TO.N,Net-(J5-Pin_1)*%
X68727795Y-124800000D02*
X69050000Y-124477795D01*
X36700000Y-124800000D02*
X68727795Y-124800000D01*
X108530000Y-124960000D02*
X99860000Y-124960000D01*
X99860000Y-124960000D02*
X99700000Y-124800000D01*
%TO.N,Net-(J5-Pin_2)*%
X36700000Y-119800000D02*
X61227795Y-119800000D01*
X61227795Y-119800000D02*
X61550000Y-119477795D01*
%TO.N,Net-(J5-Pin_3)*%
X36700000Y-114800000D02*
X68727795Y-114800000D01*
X68727795Y-114800000D02*
X69050000Y-114477795D01*
%TO.N,Net-(J6-Pin_2)*%
X61172205Y-164800000D02*
X61450000Y-165077795D01*
X36567500Y-164800000D02*
X61172205Y-164800000D01*
%TO.N,Net-(J6-Pin_1)*%
X36567500Y-169800000D02*
X68672205Y-169800000D01*
X59000000Y-180027795D02*
X59000000Y-190694744D01*
X59000000Y-190694744D02*
X60605256Y-192300000D01*
X68672205Y-169800000D02*
X68950000Y-170077795D01*
X68950000Y-170077795D02*
X59000000Y-180027795D01*
X76000000Y-192300000D02*
X98500000Y-169800000D01*
X60605256Y-192300000D02*
X76000000Y-192300000D01*
%TO.N,Net-(J6-Pin_3)*%
X36567500Y-159800000D02*
X68672205Y-159800000D01*
X68672205Y-159800000D02*
X68950000Y-160077795D01*
%TO.N,Net-(Q1-B)*%
X102495000Y-46380000D02*
X109870000Y-39005000D01*
X101190000Y-46380000D02*
X102495000Y-46380000D01*
X109870000Y-39005000D02*
X109870000Y-38400000D01*
%TO.N,Net-(Q2-B)*%
X109600000Y-82310000D02*
X102730000Y-89180000D01*
X109600000Y-81360000D02*
X109600000Y-82310000D01*
X102730000Y-89180000D02*
X101400000Y-89180000D01*
%TO.N,Net-(Q3-B)*%
X100600000Y-133000000D02*
X102710000Y-133000000D01*
X109800000Y-125910000D02*
X109800000Y-124960000D01*
X102710000Y-133000000D02*
X109800000Y-125910000D01*
%TO.N,Net-(Q4-B)*%
X109200000Y-170910000D02*
X109200000Y-169960000D01*
X100200000Y-178190000D02*
X101920000Y-178190000D01*
X101920000Y-178190000D02*
X109200000Y-170910000D01*
%TO.N,/ESP32_Controller/Relay_3*%
X206004594Y-126290000D02*
X215900000Y-116394594D01*
X132445635Y-126290000D02*
X206004594Y-126290000D01*
X215900000Y-116394594D02*
X215900000Y-70710000D01*
X100944365Y-95700000D02*
X101855635Y-95700000D01*
X215800000Y-70610000D02*
X214850000Y-70610000D01*
X101855635Y-95700000D02*
X132445635Y-126290000D01*
X100600000Y-140620000D02*
X112430000Y-128790000D01*
X100300000Y-96344365D02*
X100944365Y-95700000D01*
X112430000Y-109385635D02*
X100300000Y-97255635D01*
X112430000Y-128790000D02*
X112430000Y-109385635D01*
X215900000Y-70710000D02*
X215800000Y-70610000D01*
X100300000Y-97255635D02*
X100300000Y-96344365D01*
%TO.N,/ESP32_Controller/Relay_4*%
X135910000Y-52900000D02*
X155810000Y-72800000D01*
X100734365Y-52900000D02*
X135910000Y-52900000D01*
X99100000Y-184710000D02*
X99100000Y-54534365D01*
X100200000Y-185810000D02*
X99100000Y-184710000D01*
X99100000Y-54534365D02*
X100734365Y-52900000D01*
X207660000Y-69340000D02*
X214850000Y-69340000D01*
X155810000Y-72800000D02*
X204200000Y-72800000D01*
X204200000Y-72800000D02*
X207660000Y-69340000D01*
%TO.N,/ESP32_Controller/Relay_1*%
X101190000Y-54000000D02*
X170980000Y-123790000D01*
X206004594Y-123790000D02*
X214850000Y-114944594D01*
X170980000Y-123790000D02*
X206004594Y-123790000D01*
X214850000Y-114944594D02*
X214850000Y-71880000D01*
%TO.N,/ESP32_Controller/Relay_2*%
X235720000Y-105120000D02*
X272655635Y-105120000D01*
X219155000Y-73130000D02*
X219155000Y-88555000D01*
X219155000Y-88555000D02*
X235720000Y-105120000D01*
X273300000Y-106675635D02*
X251585635Y-128390000D01*
X251585635Y-128390000D02*
X132990000Y-128390000D01*
X272655635Y-105120000D02*
X273300000Y-105764365D01*
X132990000Y-128390000D02*
X101400000Y-96800000D01*
X273300000Y-105764365D02*
X273300000Y-106675635D01*
%TD*%
M02*
