%TF.GenerationSoftware,KiCad,Pcbnew,10.0.4*%
%TF.CreationDate,2026-07-08T02:39:23-07:00*%
%TF.ProjectId,smarthomeiot,736d6172-7468-46f6-9d65-696f742e6b69,rev?*%
%TF.SameCoordinates,Original*%
%TF.FileFunction,Copper,L2,Bot*%
%TF.FilePolarity,Positive*%
%FSLAX46Y46*%
G04 Gerber Fmt 4.6, Leading zero omitted, Abs format (unit mm)*
G04 Created by KiCad (PCBNEW 10.0.4) date 2026-07-08 02:39:23*
%MOMM*%
%LPD*%
G01*
G04 APERTURE LIST*
G04 Aperture macros list*
%AMRoundRect*
0 Rectangle with rounded corners*
0 $1 Rounding radius*
0 $2 $3 $4 $5 $6 $7 $8 $9 X,Y pos of 4 corners*
0 Add a 4 corners polygon primitive as box body*
4,1,4,$2,$3,$4,$5,$6,$7,$8,$9,$2,$3,0*
0 Add four circle primitives for the rounded corners*
1,1,$1+$1,$2,$3*
1,1,$1+$1,$4,$5*
1,1,$1+$1,$6,$7*
1,1,$1+$1,$8,$9*
0 Add four rect primitives between the rounded corners*
20,1,$1+$1,$2,$3,$4,$5,0*
20,1,$1+$1,$4,$5,$6,$7,0*
20,1,$1+$1,$6,$7,$8,$9,0*
20,1,$1+$1,$8,$9,$2,$3,0*%
G04 Aperture macros list end*
%TA.AperFunction,ComponentPad*%
%ADD10RoundRect,0.250000X-0.600000X-0.750000X0.600000X-0.750000X0.600000X0.750000X-0.600000X0.750000X0*%
%TD*%
%TA.AperFunction,ComponentPad*%
%ADD11O,1.700000X2.000000*%
%TD*%
%TA.AperFunction,ComponentPad*%
%ADD12C,1.600000*%
%TD*%
%TA.AperFunction,ComponentPad*%
%ADD13C,1.440000*%
%TD*%
%TA.AperFunction,ComponentPad*%
%ADD14C,2.800000*%
%TD*%
%TA.AperFunction,ComponentPad*%
%ADD15RoundRect,0.250000X1.150000X-1.150000X1.150000X1.150000X-1.150000X1.150000X-1.150000X-1.150000X0*%
%TD*%
%TA.AperFunction,ComponentPad*%
%ADD16RoundRect,0.250000X1.050000X-1.050000X1.050000X1.050000X-1.050000X1.050000X-1.050000X-1.050000X0*%
%TD*%
%TA.AperFunction,ComponentPad*%
%ADD17C,2.600000*%
%TD*%
%TA.AperFunction,HeatsinkPad*%
%ADD18C,0.600000*%
%TD*%
%TA.AperFunction,ComponentPad*%
%ADD19RoundRect,0.250000X-0.550000X-0.550000X0.550000X-0.550000X0.550000X0.550000X-0.550000X0.550000X0*%
%TD*%
%TA.AperFunction,ComponentPad*%
%ADD20RoundRect,0.250000X-1.050000X-1.050000X1.050000X-1.050000X1.050000X1.050000X-1.050000X1.050000X0*%
%TD*%
%TA.AperFunction,ComponentPad*%
%ADD21R,1.700000X1.700000*%
%TD*%
%TA.AperFunction,ComponentPad*%
%ADD22C,1.700000*%
%TD*%
%TA.AperFunction,ComponentPad*%
%ADD23R,1.050000X1.500000*%
%TD*%
%TA.AperFunction,ComponentPad*%
%ADD24O,1.050000X1.500000*%
%TD*%
%TA.AperFunction,ComponentPad*%
%ADD25C,3.000000*%
%TD*%
%TA.AperFunction,ViaPad*%
%ADD26C,0.600000*%
%TD*%
%TA.AperFunction,Conductor*%
%ADD27C,0.200000*%
%TD*%
G04 APERTURE END LIST*
D10*
%TO.P,U1,1,AC/L_1*%
%TO.N,Net-(U1-AC{slash}L)*%
X148320000Y-71400000D03*
D11*
%TO.P,U1,2,AC/N_2*%
%TO.N,Net-(J1-Pin_2)*%
X148320000Y-76400000D03*
%TO.P,U1,3,-Vout_3*%
%TO.N,GND*%
X177400000Y-66400000D03*
%TO.P,U1,4,+Vout_4*%
%TO.N,+5V*%
X177400000Y-81400000D03*
%TD*%
D12*
%TO.P,R6,1*%
%TO.N,/ESP32_Controller/Relay_4*%
X100200000Y-185810000D03*
%TO.P,R6,2*%
%TO.N,Net-(Q4-B)*%
X100200000Y-178190000D03*
%TD*%
%TO.P,R5,1*%
%TO.N,/ESP32_Controller/Relay_3*%
X100600000Y-140620000D03*
%TO.P,R5,2*%
%TO.N,Net-(Q3-B)*%
X100600000Y-133000000D03*
%TD*%
D13*
%TO.P,RV1,1*%
%TO.N,Net-(U1-AC{slash}L)*%
X143520000Y-145340000D03*
%TO.P,RV1,2*%
%TO.N,Net-(J1-Pin_2)*%
X148600000Y-142800000D03*
%TO.P,RV1,3*%
%TO.N,N/C*%
X143520000Y-140260000D03*
%TD*%
D14*
%TO.P,K4,11*%
%TO.N,Net-(J6-Pin_2)*%
X61450000Y-165077795D03*
%TO.P,K4,12*%
%TO.N,Net-(J6-Pin_1)*%
X68950000Y-170077795D03*
%TO.P,K4,14*%
%TO.N,Net-(J6-Pin_3)*%
X68950000Y-160077795D03*
D15*
%TO.P,K4,A1*%
%TO.N,+5V*%
X61450000Y-185077795D03*
D14*
%TO.P,K4,A2*%
%TO.N,Net-(D4-A)*%
X68950000Y-185077795D03*
%TD*%
D16*
%TO.P,J3,1,Pin_1_1*%
%TO.N,Net-(J3-Pin_1)*%
X36700000Y-38800000D03*
D17*
%TO.P,J3,2,Pin_2_2*%
%TO.N,Net-(J3-Pin_2)*%
X36700000Y-33800000D03*
%TO.P,J3,3,Pin_3_3*%
%TO.N,Net-(J3-Pin_3)*%
X36700000Y-28800000D03*
%TD*%
D14*
%TO.P,K2,11*%
%TO.N,Net-(J4-Pin_2)*%
X61200000Y-76200000D03*
%TO.P,K2,12*%
%TO.N,Net-(J4-Pin_1)*%
X68700000Y-81200000D03*
%TO.P,K2,14*%
%TO.N,Net-(J4-Pin_3)*%
X68700000Y-71200000D03*
D15*
%TO.P,K2,A1*%
%TO.N,+5V*%
X61200000Y-96200000D03*
D14*
%TO.P,K2,A2*%
%TO.N,Net-(D2-A)*%
X68700000Y-96200000D03*
%TD*%
D18*
%TO.P,U3,39,GND_39*%
%TO.N,GND*%
X220700000Y-62390000D03*
X220700000Y-63790000D03*
X221400000Y-61690000D03*
X221400000Y-63090000D03*
X221400000Y-64490000D03*
X222100000Y-62390000D03*
X222100000Y-63790000D03*
X222800000Y-61690000D03*
X222800000Y-63090000D03*
X222800000Y-64490000D03*
X223500000Y-62390000D03*
X223500000Y-63790000D03*
%TD*%
D19*
%TO.P,C2,1*%
%TO.N,GND*%
X121400000Y-85200000D03*
D12*
%TO.P,C2,2*%
%TO.N,+3V3*%
X125200000Y-85200000D03*
%TD*%
%TO.P,R4,1*%
%TO.N,/ESP32_Controller/Relay_2*%
X101400000Y-96800000D03*
%TO.P,R4,2*%
%TO.N,Net-(Q2-B)*%
X101400000Y-89180000D03*
%TD*%
D20*
%TO.P,J1,1,Pin_1_1*%
%TO.N,Net-(J1-Pin_1)*%
X143100000Y-178167500D03*
D17*
%TO.P,J1,2,Pin_2_2*%
%TO.N,Net-(J1-Pin_2)*%
X148100000Y-178167500D03*
%TD*%
D12*
%TO.P,R3,1*%
%TO.N,/ESP32_Controller/Relay_1*%
X101190000Y-54000000D03*
%TO.P,R3,2*%
%TO.N,Net-(Q1-B)*%
X101190000Y-46380000D03*
%TD*%
D16*
%TO.P,J6,1,Pin_1_1*%
%TO.N,Net-(J6-Pin_1)*%
X36567500Y-169800000D03*
D17*
%TO.P,J6,2,Pin_2_2*%
%TO.N,Net-(J6-Pin_2)*%
X36567500Y-164800000D03*
%TO.P,J6,3,Pin_3_3*%
%TO.N,Net-(J6-Pin_3)*%
X36567500Y-159800000D03*
%TD*%
D19*
%TO.P,C1,1*%
%TO.N,+5V*%
X121300000Y-102400000D03*
D12*
%TO.P,C1,2*%
%TO.N,GND*%
X124800000Y-102400000D03*
%TD*%
D14*
%TO.P,K3,11*%
%TO.N,Net-(J5-Pin_2)*%
X61550000Y-119477795D03*
%TO.P,K3,12*%
%TO.N,Net-(J5-Pin_1)*%
X69050000Y-124477795D03*
%TO.P,K3,14*%
%TO.N,Net-(J5-Pin_3)*%
X69050000Y-114477795D03*
D15*
%TO.P,K3,A1*%
%TO.N,+5V*%
X61550000Y-139477795D03*
D14*
%TO.P,K3,A2*%
%TO.N,Net-(D3-A)*%
X69050000Y-139477795D03*
%TD*%
D21*
%TO.P,J2,1,Pin_1_1*%
%TO.N,+3V3*%
X256400000Y-106280000D03*
D22*
%TO.P,J2,2,Pin_2_2*%
%TO.N,GND*%
X256400000Y-103740000D03*
%TO.P,J2,3,Pin_3_3*%
%TO.N,Net-(J2-Pin_3)*%
X256400000Y-101200000D03*
%TO.P,J2,4,Pin_4_4*%
%TO.N,Net-(J2-Pin_4)*%
X256400000Y-98660000D03*
%TD*%
D23*
%TO.P,Q1,1,C_1*%
%TO.N,Net-(J3-Pin_1)*%
X108600000Y-38400000D03*
D24*
%TO.P,Q1,2,B_2*%
%TO.N,Net-(Q1-B)*%
X109870000Y-38400000D03*
%TO.P,Q1,3,E_3*%
%TO.N,GND*%
X111140000Y-38400000D03*
%TD*%
D16*
%TO.P,J5,1,Pin_1_1*%
%TO.N,Net-(J5-Pin_1)*%
X36700000Y-124800000D03*
D17*
%TO.P,J5,2,Pin_2_2*%
%TO.N,Net-(J5-Pin_2)*%
X36700000Y-119800000D03*
%TO.P,J5,3,Pin_3_3*%
%TO.N,Net-(J5-Pin_3)*%
X36700000Y-114800000D03*
%TD*%
D12*
%TO.P,R2,1*%
%TO.N,+3V3*%
X272200000Y-106220000D03*
%TO.P,R2,2*%
%TO.N,Net-(J2-Pin_4)*%
X272200000Y-98600000D03*
%TD*%
D25*
%TO.P,F1,1*%
%TO.N,Net-(J1-Pin_1)*%
X208800000Y-167250000D03*
%TO.P,F1,2*%
%TO.N,Net-(U1-AC{slash}L)*%
X208800000Y-144750000D03*
%TD*%
D23*
%TO.P,Q2,1,C_1*%
%TO.N,Net-(J4-Pin_1)*%
X108330000Y-81360000D03*
D24*
%TO.P,Q2,2,B_2*%
%TO.N,Net-(Q2-B)*%
X109600000Y-81360000D03*
%TO.P,Q2,3,E_3*%
%TO.N,GND*%
X110870000Y-81360000D03*
%TD*%
D19*
%TO.P,D1,1,K_1*%
%TO.N,+5V*%
X60990000Y-61000000D03*
D12*
%TO.P,D1,2,A_2*%
%TO.N,Net-(D1-A)*%
X68610000Y-61000000D03*
%TD*%
D23*
%TO.P,Q3,1,C_1*%
%TO.N,Net-(J5-Pin_1)*%
X108530000Y-124960000D03*
D24*
%TO.P,Q3,2,B_2*%
%TO.N,Net-(Q3-B)*%
X109800000Y-124960000D03*
%TO.P,Q3,3,E_3*%
%TO.N,GND*%
X111070000Y-124960000D03*
%TD*%
D19*
%TO.P,D2,1,K_1*%
%TO.N,+5V*%
X61190000Y-103200000D03*
D12*
%TO.P,D2,2,A_2*%
%TO.N,Net-(D2-A)*%
X68810000Y-103200000D03*
%TD*%
D19*
%TO.P,D4,1,K_1*%
%TO.N,+5V*%
X61390000Y-191200000D03*
D12*
%TO.P,D4,2,A_2*%
%TO.N,Net-(D4-A)*%
X69010000Y-191200000D03*
%TD*%
D23*
%TO.P,Q4,1,C_1*%
%TO.N,Net-(J6-Pin_1)*%
X107930000Y-169960000D03*
D24*
%TO.P,Q4,2,B_2*%
%TO.N,Net-(Q4-B)*%
X109200000Y-169960000D03*
%TO.P,Q4,3,E_3*%
%TO.N,GND*%
X110470000Y-169960000D03*
%TD*%
D19*
%TO.P,D3,1,K_1*%
%TO.N,+5V*%
X61590000Y-146400000D03*
D12*
%TO.P,D3,2,A_2*%
%TO.N,Net-(D3-A)*%
X69210000Y-146400000D03*
%TD*%
%TO.P,R1,1*%
%TO.N,+3V3*%
X263600000Y-108410000D03*
%TO.P,R1,2*%
%TO.N,Net-(J2-Pin_3)*%
X263600000Y-100790000D03*
%TD*%
D16*
%TO.P,J4,1,Pin_1_1*%
%TO.N,Net-(J4-Pin_1)*%
X36700000Y-81600000D03*
D17*
%TO.P,J4,2,Pin_2_2*%
%TO.N,Net-(J4-Pin_2)*%
X36700000Y-76600000D03*
%TO.P,J4,3,Pin_3_3*%
%TO.N,Net-(J4-Pin_3)*%
X36700000Y-71600000D03*
%TD*%
D14*
%TO.P,K1,11*%
%TO.N,Net-(J3-Pin_2)*%
X61150000Y-33677795D03*
%TO.P,K1,12*%
%TO.N,Net-(J3-Pin_1)*%
X68650000Y-38677795D03*
%TO.P,K1,14*%
%TO.N,Net-(J3-Pin_3)*%
X68650000Y-28677795D03*
D15*
%TO.P,K1,A1*%
%TO.N,+5V*%
X61150000Y-53677795D03*
D14*
%TO.P,K1,A2*%
%TO.N,Net-(D1-A)*%
X68650000Y-53677795D03*
%TD*%
D26*
%TO.N,GND*%
X119502082Y-112497918D03*
X112000000Y-52300000D03*
X214250000Y-73000000D03*
%TO.N,+5V*%
X99700000Y-110000000D03*
X196600000Y-126890000D03*
%TO.N,+3V3*%
X206649956Y-126493168D03*
X206023032Y-125423032D03*
X200200000Y-124390000D03*
%TO.N,Net-(U1-AC{slash}L)*%
X158819265Y-110780735D03*
%TO.N,Net-(J1-Pin_2)*%
X159919264Y-111880735D03*
%TO.N,Net-(J4-Pin_1)*%
X99700000Y-81600000D03*
%TO.N,Net-(J5-Pin_1)*%
X99700000Y-124800000D03*
%TO.N,Net-(J6-Pin_1)*%
X98500000Y-169800000D03*
%TD*%
%TO.N,GND*%
D27*
X225660000Y-73000000D02*
X256400000Y-103740000D01*
X110870000Y-53430000D02*
X110870000Y-81360000D01*
X112000000Y-52300000D02*
X110870000Y-53430000D01*
X111070000Y-120930000D02*
X111070000Y-124960000D01*
X119502082Y-112497918D02*
X111070000Y-120930000D01*
X214250000Y-73000000D02*
X225660000Y-73000000D01*
%TO.N,+5V*%
X99700000Y-110000000D02*
X72400000Y-110000000D01*
X142300000Y-81400000D02*
X121300000Y-102400000D01*
X65600000Y-103200000D02*
X61190000Y-103200000D01*
X177400000Y-107690000D02*
X177400000Y-81400000D01*
X177400000Y-81400000D02*
X142300000Y-81400000D01*
X72400000Y-110000000D02*
X65600000Y-103200000D01*
X196600000Y-126890000D02*
X177400000Y-107690000D01*
%TO.N,+3V3*%
X120515256Y-103500000D02*
X120200000Y-103184744D01*
X197100000Y-127490000D02*
X176377058Y-127490000D01*
X200200000Y-124390000D02*
X197100000Y-127490000D01*
X152387058Y-103500000D02*
X120515256Y-103500000D01*
X206023032Y-125423032D02*
X206023032Y-125866244D01*
X206023032Y-125866244D02*
X206649956Y-126493168D01*
X120200000Y-90200000D02*
X125200000Y-85200000D01*
X176377058Y-127490000D02*
X152387058Y-103500000D01*
X120200000Y-103184744D02*
X120200000Y-90200000D01*
%TO.N,Net-(U1-AC{slash}L)*%
X158819265Y-130040735D02*
X143520000Y-145340000D01*
X158819265Y-110780735D02*
X158819265Y-130040735D01*
%TO.N,Net-(J1-Pin_2)*%
X159919264Y-111880735D02*
X159919264Y-129680736D01*
X159919264Y-129680736D02*
X148600000Y-141000000D01*
X148600000Y-141000000D02*
X148600000Y-142800000D01*
%TO.N,Net-(J4-Pin_1)*%
X99700000Y-81600000D02*
X99300000Y-81200000D01*
X99300000Y-81200000D02*
X68700000Y-81200000D01*
%TO.N,Net-(J5-Pin_1)*%
X99700000Y-124800000D02*
X99377795Y-124477795D01*
X99377795Y-124477795D02*
X69050000Y-124477795D01*
%TO.N,Net-(J6-Pin_1)*%
X107770000Y-169800000D02*
X107930000Y-169960000D01*
X98500000Y-169800000D02*
X107770000Y-169800000D01*
%TD*%
M02*
