M48
; DRILL file KiCad 10.0.4 date 2026-07-08T02:39:28
; FORMAT={-:-/ absolute / metric / decimal}
; #@! TF.CreationDate,2026-07-08T02:39:28-07:00
; #@! TF.GenerationSoftware,Kicad,Pcbnew,10.0.4
; #@! TF.FileFunction,Plated,1,2,PTH
FMAT,2
METRIC
; #@! TA.AperFunction,Plated,PTH,ComponentDrill
T1C0.200
; #@! TA.AperFunction,Plated,PTH,ViaDrill
T2C0.300
; #@! TA.AperFunction,Plated,PTH,ComponentDrill
T3C0.750
; #@! TA.AperFunction,Plated,PTH,ComponentDrill
T4C0.800
; #@! TA.AperFunction,Plated,PTH,ComponentDrill
T5C1.000
; #@! TA.AperFunction,Plated,PTH,ComponentDrill
T6C1.300
; #@! TA.AperFunction,Plated,PTH,ComponentDrill
T7C1.500
%
G90
G05
T1
X220.7Y-62.39
X220.7Y-63.79
X221.4Y-61.69
X221.4Y-63.09
X221.4Y-64.49
X222.1Y-62.39
X222.1Y-63.79
X222.8Y-61.69
X222.8Y-63.09
X222.8Y-64.49
X223.5Y-62.39
X223.5Y-63.79
T2
X98.5Y-169.8
X99.7Y-81.6
X99.7Y-110.0
X99.7Y-124.8
X112.0Y-52.3
X119.502Y-112.498
X158.819Y-110.781
X159.919Y-111.881
X196.6Y-126.89
X200.2Y-124.39
X206.023Y-125.423
X206.65Y-126.493
X214.25Y-73.0
T3
X107.93Y-169.96
X108.33Y-81.36
X108.53Y-124.96
X108.6Y-38.4
X109.2Y-169.96
X109.6Y-81.36
X109.8Y-124.96
X109.87Y-38.4
X110.47Y-169.96
X110.87Y-81.36
X111.07Y-124.96
X111.14Y-38.4
T4
X60.99Y-61.0
X61.19Y-103.2
X61.39Y-191.2
X61.59Y-146.4
X68.61Y-61.0
X68.81Y-103.2
X69.01Y-191.2
X69.21Y-146.4
X100.2Y-178.19
X100.2Y-185.81
X100.6Y-133.0
X100.6Y-140.62
X101.19Y-46.38
X101.19Y-54.0
X101.4Y-89.18
X101.4Y-96.8
X121.3Y-102.4
X121.4Y-85.2
X124.8Y-102.4
X125.2Y-85.2
X143.52Y-140.26
X143.52Y-145.34
X148.6Y-142.8
X263.6Y-100.79
X263.6Y-108.41
X272.2Y-98.6
X272.2Y-106.22
T5
X148.32Y-71.4
X148.32Y-76.4
X177.4Y-66.4
X177.4Y-81.4
X256.4Y-98.66
X256.4Y-101.2
X256.4Y-103.74
X256.4Y-106.28
T6
X36.567Y-159.8
X36.567Y-164.8
X36.567Y-169.8
X36.7Y-28.8
X36.7Y-33.8
X36.7Y-38.8
X36.7Y-71.6
X36.7Y-76.6
X36.7Y-81.6
X36.7Y-114.8
X36.7Y-119.8
X36.7Y-124.8
X143.1Y-178.167
X148.1Y-178.167
X208.8Y-144.75
X208.8Y-167.25
T7
X61.15Y-33.678
X61.15Y-53.678
X61.2Y-76.2
X61.2Y-96.2
X61.45Y-165.078
X61.45Y-185.078
X61.55Y-119.478
X61.55Y-139.478
X68.65Y-28.678
X68.65Y-38.678
X68.65Y-53.678
X68.7Y-71.2
X68.7Y-81.2
X68.7Y-96.2
X68.95Y-160.078
X68.95Y-170.078
X68.95Y-185.078
X69.05Y-114.478
X69.05Y-124.478
X69.05Y-139.478
M30
